<svg xmlns="http://www.w3.org/2000/svg" width="16" height="16" viewBox="0 0 16 16" fill="none">
<path d="M15.8555 0.869287C15.7591 0.646669 15.5993 0.457367 15.396 0.325009C15.1927 0.192651 14.955 0.123101 14.7124 0.125039H1.28809C1.04593 0.125044 0.808971 0.195393 0.606031 0.327534C0.403091 0.459675 0.242904 0.647919 0.144937 0.869388C0.0469711 1.09086 0.0154442 1.33601 0.0541885 1.57506C0.0929328 1.81411 0.20028 2.03676 0.363183 2.21595L5.50025 7.86666V13.9572C5.50009 14.1835 5.5614 14.4056 5.67763 14.5998C5.79386 14.794 5.96064 14.953 6.16018 15.0597C6.35971 15.1665 6.5845 15.2171 6.81054 15.2061C7.03658 15.1951 7.25539 15.1229 7.4436 14.9972L9.94357 13.3307C10.115 13.2167 10.2555 13.0621 10.3526 12.8806C10.4498 12.6991 10.5005 12.4964 10.5002 12.2906V7.86674L15.6373 2.21588C15.802 2.03767 15.9104 1.81492 15.9492 1.57544C15.988 1.33596 15.9554 1.09036 15.8555 0.869287Z" fill="white"/>
</svg>