<svg width="21" height="20" viewBox="0 0 21 20" fill="none" xmlns="http://www.w3.org/2000/svg">
<path d="M10.7879 15.9993L16.9099 9.87735C18.4141 8.37313 18.636 5.89846 17.2125 4.31764C16.856 3.92053 16.4222 3.60023 15.9378 3.37628C15.4533 3.15233 14.9283 3.02944 14.3948 3.01509C13.8613 3.00074 13.3305 3.09525 12.8347 3.29284C12.3389 3.49042 11.8886 3.78695 11.5112 4.16433L10.3606 5.31498L9.3671 4.32151C7.86288 2.81728 5.38821 2.59536 3.80739 4.01886C3.41028 4.37543 3.08997 4.80916 2.86603 5.29361C2.64208 5.77805 2.51918 6.30304 2.50484 6.83655C2.49049 7.37006 2.58499 7.90089 2.78258 8.39667C2.98017 8.89245 3.2767 9.34277 3.65407 9.72016L9.93319 15.9993C10.0465 16.1126 10.2003 16.1763 10.3606 16.1763C10.5209 16.1763 10.6746 16.1126 10.7879 15.9993V15.9993Z" stroke="black" stroke-width="1.3" stroke-linecap="round" stroke-linejoin="round"/>
</svg>
