<svg xmlns="http://www.w3.org/2000/svg" width="20" height="20" viewBox="0 0 20 20" fill="none">
<path d="M9.99954 12.5C10.8625 12.5 11.562 11.8004 11.562 10.9375C11.562 10.0746 10.8625 9.375 9.99954 9.375C9.1366 9.375 8.43704 10.0746 8.43704 10.9375C8.43704 11.8004 9.1366 12.5 9.99954 12.5Z" stroke="#565D61" stroke-linecap="round" stroke-linejoin="round"/>
<path d="M9.99954 12.5V14.375" stroke="#565D61" stroke-linecap="round" stroke-linejoin="round"/>
<path d="M16.2495 6.875H3.74954C3.40436 6.875 3.12454 7.15482 3.12454 7.5V16.25C3.12454 16.5952 3.40436 16.875 3.74954 16.875H16.2495C16.5947 16.875 16.8745 16.5952 16.8745 16.25V7.5C16.8745 7.15482 16.5947 6.875 16.2495 6.875Z" stroke="#565D61" stroke-linecap="round" stroke-linejoin="round"/>
<path d="M7.18704 6.875V4.0625C7.18704 3.31658 7.48336 2.60121 8.0108 2.07376C8.53825 1.54632 9.25362 1.25 9.99954 1.25C10.7455 1.25 11.4608 1.54632 11.9883 2.07376C12.5157 2.60121 12.812 3.31658 12.812 4.0625V6.875" stroke="#565D61" stroke-linecap="round" stroke-linejoin="round"/>
</svg>