<svg xmlns="http://www.w3.org/2000/svg" width="64" height="64" viewBox="0 0 64 64" fill="none">
<g clip-path="url(#clip0_1_178)">
<path d="M32.0001 6C26.8578 6 21.831 7.52487 17.5553 10.3818C13.2796 13.2387 9.94714 17.2994 7.97927 22.0502C6.01139 26.8011 5.4965 32.0288 6.49972 37.0723C7.50293 42.1159 9.97919 46.7486 13.6154 50.3848C17.2515 54.0209 21.8843 56.4972 26.9278 57.5004C31.9713 58.5036 37.199 57.9887 41.9499 56.0209C46.7008 54.053 50.7614 50.7205 53.6183 46.4448C56.4753 42.1691 58.0001 37.1423 58.0001 32C57.9929 25.1066 55.2512 18.4976 50.3769 13.6233C45.5025 8.74889 38.8935 6.00728 32.0001 6ZM42.1376 33.645L29.1376 42.645C28.8375 42.8525 28.4863 42.974 28.1221 42.9963C27.7579 43.0185 27.3946 42.9407 27.0714 42.7713C26.7483 42.6018 26.4776 42.3472 26.2888 42.035C26.1 41.7228 26.0001 41.3649 26.0001 41V23C26.0001 22.6351 26.1 22.2772 26.2888 21.965C26.4776 21.6528 26.7483 21.3981 27.0714 21.2287C27.3946 21.0593 27.7579 20.9815 28.1221 21.0037C28.4863 21.026 28.8375 21.1475 29.1376 21.355L42.1376 30.355C42.4037 30.539 42.6212 30.7848 42.7714 31.0713C42.9216 31.3578 43.0001 31.6765 43.0001 32C43.0001 32.3235 42.9216 32.6422 42.7714 32.9287C42.6212 33.2152 42.4037 33.461 42.1376 33.645Z" fill="white"/>
</g>
<defs>
<clipPath id="clip0_1_178">
<rect width="64" height="64" fill="white"/>
</clipPath>
</defs>
</svg>