<svg width="22" height="22" viewBox="0 0 22 22" fill="none" xmlns="http://www.w3.org/2000/svg">
<path d="M18.5625 6.18745H3.4375C3.0578 6.18745 2.75 6.49526 2.75 6.87495V17.875C2.75 18.2547 3.0578 18.5625 3.4375 18.5625H18.5625C18.9422 18.5625 19.25 18.2547 19.25 17.875V6.87495C19.25 6.49526 18.9422 6.18745 18.5625 6.18745Z" stroke="black" stroke-width="1.3" stroke-linecap="round" stroke-linejoin="round"/>
<path d="M7.56232 8.93752V6.18752C7.56232 5.27583 7.92448 4.40149 8.56914 3.75684C9.21379 3.11218 10.0881 2.75002 10.9998 2.75002C11.9115 2.75002 12.7858 3.11218 13.4305 3.75684C14.0752 4.40149 14.4373 5.27583 14.4373 6.18752V8.93752" stroke="black" stroke-width="1.3" stroke-linecap="round" stroke-linejoin="round"/>
</svg>
