<svg width="21" height="20" viewBox="0 0 21 20" fill="none" xmlns="http://www.w3.org/2000/svg">
<path d="M10.7777 10.625C12.1584 10.625 13.2777 9.50571 13.2777 8.125C13.2777 6.74429 12.1584 5.625 10.7777 5.625C9.397 5.625 8.27771 6.74429 8.27771 8.125C8.27771 9.50571 9.397 10.625 10.7777 10.625Z" stroke="black" stroke-width="0.8" stroke-linecap="round" stroke-linejoin="round"/>
<path d="M17.0277 8.12499C17.0277 13.75 10.7777 18.125 10.7777 18.125C10.7777 18.125 4.52771 13.75 4.52771 8.12499C4.52771 6.46739 5.18619 4.87768 6.35829 3.70558C7.53039 2.53348 9.1201 1.875 10.7777 1.875C12.4353 1.875 14.025 2.53348 15.1971 3.70558C16.3692 4.87768 17.0277 6.46739 17.0277 8.12499V8.12499Z" stroke="black" stroke-width="0.8" stroke-linecap="round" stroke-linejoin="round"/>
</svg>
