<svg version="1.1" xmlns="http://www.w3.org/2000/svg" xmlns:xlink="http://www.w3.org/1999/xlink" xmlns:a="http://ns.adobe.com/AdobeSVGViewerExtensions/3.0/" x="0px" y="0px" width="148.4px" height="26.1px" viewBox="0 0 148.4 26.1" style="enable-background:new 0 0 148.4 26.1;" xml:space="preserve">   <defs>   </defs>   <g>     <path d="M15.5,13.3l0.4,0c1.6,0.1,2.2,0.4,2.4,0.5c0.1,0.1,0.4,0.6,0.4,2.3V22c0,0.3-0.1,0.5-0.2,0.6c-0.1,0.1-0.4,0.3-1.5,0.6       c-0.5,0.2-1.1,0.3-1.6,0.4c-0.6,0.1-1.1,0.1-1.5,0.1c-2.5,0-4.6-0.9-6.3-2.7c-1.7-1.8-2.5-4.4-2.5-7.6c0-3.9,0.9-6.8,2.5-8.5       c1.7-1.7,3.7-2.5,5.9-2.5c2.2,0,3.9,0.7,5.3,2.1c0.8,0.8,1.5,2.1,2.2,3.8l0.1,0.3h1.6l-0.3-8.6H21l-0.1,0.3       c-0.1,0.3-0.3,0.6-0.5,0.7c-0.1,0.1-0.3,0.2-0.8,0.2c-0.1,0-0.4-0.1-2.2-0.6c-1.4-0.4-2.8-0.6-4.3-0.6c-4,0-7.3,1.4-9.8,4.2       C1.1,6.8,0,9.8,0,13.3c0,4,1.4,7.2,4.2,9.6c2.5,2.1,5.7,3.2,9.3,3.2c2,0,4.1-0.4,6.2-1.1c2.9-1,3.5-1.6,3.5-2.1v-7.2       c0-1,0.2-1.7,0.6-2c0.1-0.1,0.5-0.3,1.6-0.4l0.4,0v-1.5H15.5V13.3z">     </path>     <path d="M51.8,2l0.4,0c1.2,0.1,2,0.4,2.4,0.8c0.2,0.2,0.6,1,0.6,3.4v9.5c0,2.3-0.3,3.9-0.8,5c-1,1.9-2.8,2.8-5.6,2.8       c-2.6,0-4.3-0.9-5.2-2.7c-0.5-1-0.7-2.4-0.7-4.3V4.9c0-1.6,0.3-2.1,0.5-2.3c0.2-0.2,0.8-0.5,2.5-0.6l0.4,0V0.5H35V2l0.4,0       c1.7,0.1,2.2,0.4,2.4,0.6c0.2,0.2,0.5,0.7,0.5,2.2v11.4c0,2.3,0.4,4.2,1.2,5.7c1.5,2.7,4.4,4.1,8.5,4.1c4.2,0,7-1.4,8.5-4.1       c0.8-1.5,1.2-3.5,1.2-6.1V6.3c0-2.4,0.3-3.1,0.6-3.4c0.2-0.3,0.9-0.7,2.5-0.9l0.4,0V0.5h-9.3V2z">     </path>     <path d="M90.9,18.8c-0.9,2-1.9,3.2-3,3.7c-1.1,0.5-2.9,0.8-5.3,0.8c-2.8,0-3.7-0.1-4-0.2c-0.1,0-0.4-0.1-0.4-0.9v-8.6h5.2       c1.9,0,2.5,0.3,2.6,0.5c0.3,0.3,0.6,0.9,0.9,2.6l0.1,0.4h1.7V7.8h-1.7L87,8.2c-0.3,1.6-0.7,2.3-0.9,2.6c-0.2,0.2-0.8,0.6-2.7,0.6       h-5.2V3.6c0-0.6,0.1-0.7,0.1-0.7c0,0,0.1-0.1,0.7-0.1h5c2.5,0,3.5,0.3,3.9,0.6c0.4,0.3,0.9,1,1.2,2.9l0.1,0.4h1.7l-0.1-6.1H70.4V2       l0.4,0c1.6,0.1,2.2,0.4,2.3,0.6c0.2,0.2,0.5,0.7,0.5,2.2v16.3c0,1.7-0.3,2.1-0.4,2.2c-0.2,0.2-0.7,0.4-2.4,0.6l-0.4,0v1.5H91       l1.9-7.1H91L90.9,18.8z">     </path>     <path d="M115,11.4l-3.2-2c-1.2-0.7-2-1.4-2.6-2c-0.5-0.6-0.7-1.3-0.7-2.1c0-0.9,0.3-1.6,0.9-2.1c0.7-0.5,1.4-0.8,2.3-0.8       c1.2,0,2.4,0.4,3.6,1.3c1.2,0.9,2.1,2.4,2.7,4.7l0.1,0.3h1.7L119,0h-1.5l-0.1,0.3c-0.1,0.3-0.2,0.6-0.3,0.7       c-0.1,0.1-0.3,0.2-0.6,0.2c-0.1,0-0.4-0.1-1.9-0.6c-1.2-0.4-2.3-0.6-3.2-0.6c-2.1,0-3.9,0.7-5.2,2c-1.3,1.3-2,3-2,4.9       c0,1.5,0.6,2.9,1.7,4.1c0.6,0.6,1.4,1.3,2.3,1.9l3.1,1.9c1.8,1.1,2.9,1.9,3.4,2.5c0.8,0.8,1.2,1.7,1.2,2.8c0,1.2-0.4,2.1-1.1,2.8       c-0.8,0.7-1.7,1-2.7,1c-2,0-3.7-0.8-5.1-2.4c-0.8-0.9-1.5-2.2-2.1-3.8l-0.1-0.3h-1.7l1.2,8.7h1.6l0.1-0.4c0-0.2,0.1-0.5,0.2-0.7       c0.1-0.1,0.2-0.2,0.5-0.2c0.1,0,0.4,0.1,2,0.6c1.3,0.4,2.5,0.7,3.7,0.7c2.4,0,4.3-0.7,5.8-2c1.5-1.4,2.3-3.1,2.3-5.1       c0-1.5-0.4-2.9-1.3-4C118.5,13.8,117,12.7,115,11.4z">     </path>     <path d="M147.1,14.9c-0.9-1.1-2.3-2.3-4.4-3.5l-3.2-2c-1.2-0.7-2-1.4-2.6-2c-0.5-0.6-0.7-1.3-0.7-2.1c0-0.9,0.3-1.6,0.9-2.1       c0.7-0.5,1.4-0.8,2.3-0.8c1.2,0,2.4,0.4,3.6,1.3c1.2,0.9,2.1,2.4,2.7,4.7l0.1,0.3h1.7L146.7,0h-1.5l-0.1,0.3       c-0.1,0.3-0.2,0.6-0.3,0.7c-0.1,0.1-0.3,0.2-0.6,0.2c-0.1,0-0.4-0.1-1.9-0.6c-1.2-0.4-2.3-0.6-3.2-0.6c-2.1,0-3.9,0.7-5.2,2       c-1.3,1.3-2,3-2,4.9c0,1.5,0.6,2.9,1.7,4.1c0.6,0.6,1.4,1.3,2.3,1.9l3.1,1.9c1.8,1.1,2.9,1.9,3.4,2.5c0.8,0.8,1.2,1.7,1.2,2.8       c0,1.2-0.4,2.1-1.1,2.8c-0.8,0.7-1.7,1-2.7,1c-2,0-3.7-0.8-5.1-2.4c-0.8-0.9-1.5-2.2-2.1-3.8l-0.1-0.3H131l1.2,8.7h1.6l0.1-0.4       c0-0.2,0.1-0.5,0.2-0.7c0.1-0.1,0.2-0.2,0.5-0.2c0.1,0,0.4,0.1,2,0.6c1.3,0.4,2.5,0.7,3.7,0.7c2.4,0,4.3-0.7,5.8-2       c1.5-1.4,2.3-3.1,2.3-5.1C148.4,17.4,148,16,147.1,14.9z">     </path>   </g> </svg>