<svg xmlns="http://www.w3.org/2000/svg" width="24" height="24" viewBox="0 0 24 24" fill="none"> <path d="M21.75 12C21.7497 13.5104 21.3985 15.0002 20.7241 16.3517C20.0498 17.7032 19.0707 18.8797 17.8641 19.7883C16.6575 20.6969 15.2563 21.3128 13.7711 21.5874C12.2858 21.8621 10.7571 21.788 9.30534 21.371L10.2256 17.6899C10.9857 18.1516 11.8608 18.3892 12.75 18.375C16.0584 18.375 18.75 15.5152 18.75 12C18.7494 11.0046 18.5286 10.0217 18.1035 9.12171C17.6785 8.22168 17.0596 7.4268 16.2913 6.794C15.523 6.1612 14.6242 5.70615 13.6594 5.46145C12.6946 5.21675 11.6876 5.18846 10.7106 5.37859C9.73358 5.56873 8.8107 5.97259 8.00806 6.56124C7.20542 7.14989 6.54291 7.90877 6.06797 8.78351C5.59303 9.65825 5.31743 10.6272 5.2609 11.621C5.20437 12.6147 5.36832 13.6087 5.741 14.5316C5.81564 14.716 5.96047 14.8632 6.14363 14.9408C6.32678 15.0184 6.53326 15.02 6.71764 14.9454C6.90202 14.8707 7.0492 14.7259 7.1268 14.5428C7.2044 14.3596 7.20606 14.1531 7.13142 13.9688C6.84113 13.2507 6.71327 12.4774 6.75701 11.7042C6.80075 10.9309 7.015 10.1769 7.38441 9.49622C7.75382 8.81552 8.26923 8.22497 8.89372 7.7669C9.5182 7.30882 10.2363 6.99457 10.9965 6.84665C11.7567 6.69874 12.5403 6.72083 13.2909 6.91134C14.0416 7.10186 14.7409 7.45607 15.3385 7.94861C15.9362 8.44114 16.4175 9.0598 16.748 9.76023C17.0785 10.4607 17.2499 11.2255 17.25 12C17.25 14.6881 15.2313 16.875 12.75 16.875C11.7665 16.875 11.0831 16.5318 10.6171 16.1238L11.9776 10.6819C12.0259 10.4889 11.9955 10.2847 11.8931 10.1141C11.7908 9.94356 11.6249 9.82063 11.4319 9.77238C11.2389 9.72414 11.0347 9.75453 10.8641 9.85686C10.6936 9.9592 10.5706 10.1251 10.5224 10.3181L7.89172 20.8408C6.30651 20.1041 4.94853 18.9548 3.95996 17.5131C2.97139 16.0715 2.38859 14.3906 2.27259 12.6464C2.15659 10.9022 2.51166 9.15897 3.30062 7.59912C4.08957 6.03927 5.28339 4.72023 6.75708 3.7801C8.23076 2.83997 9.9301 2.31335 11.6772 2.25537C13.4242 2.19738 15.1547 2.61018 16.6875 3.45053C18.2203 4.29087 19.4989 5.52786 20.3896 7.03197C21.2802 8.53608 21.7501 10.252 21.75 12Z" fill="black"></path> </svg>