<svg xmlns="http://www.w3.org/2000/svg" width="24" height="24" viewBox="0 0 24 24" fill="none"> <path d="M21.9685 6.54336C21.8796 6.19841 21.7099 5.87955 21.4734 5.61309C21.237 5.34664 20.9406 5.14023 20.6087 5.0109C17.3959 3.77631 12.2793 3.78661 12 3.78808C11.7208 3.78583 6.6042 3.77626 3.39139 5.0109C3.05947 5.14023 2.76307 5.34662 2.52663 5.61306C2.2902 5.87949 2.1205 6.19833 2.03155 6.54327C1.78903 7.47426 1.5 9.17664 1.5 11.9999C1.5 14.823 1.78903 16.5254 2.03151 17.4564C2.12044 17.8013 2.29013 18.1202 2.52657 18.3866C2.763 18.6531 3.05942 18.8595 3.39134 18.9888C6.46692 20.1707 11.2871 20.2118 11.9382 20.2118C11.9964 20.2119 12.0036 20.2119 12.0618 20.2118C12.7134 20.2118 17.5332 20.1706 20.6086 18.9888C20.9405 18.8595 21.2369 18.6531 21.4734 18.3867C21.7098 18.1202 21.8795 17.8014 21.9684 17.4564C22.211 16.5254 22.5 14.8231 22.5 11.9999C22.5 9.17669 22.211 7.47431 21.9685 6.54336ZM15.208 12.3119L10.708 15.3119C10.6515 15.3495 10.5859 15.3711 10.5181 15.3744C10.4503 15.3777 10.3829 15.3625 10.323 15.3305C10.2632 15.2985 10.2132 15.2508 10.1783 15.1926C10.1434 15.1343 10.125 15.0677 10.125 14.9999V8.99985C10.125 8.93198 10.1434 8.86537 10.1783 8.80714C10.2132 8.74891 10.2632 8.70123 10.323 8.66921C10.3829 8.63718 10.4503 8.62199 10.5181 8.62528C10.5859 8.62856 10.6515 8.65018 10.708 8.68784L15.208 11.6878C15.2594 11.7221 15.3015 11.7685 15.3306 11.8229C15.3598 11.8773 15.375 11.9381 15.375 11.9999C15.375 12.0616 15.3598 12.1224 15.3306 12.1768C15.3015 12.2312 15.2594 12.2776 15.208 12.3119Z" fill="black"></path> </svg>