<svg width="15" height="15" viewBox="0 0 15 15" fill="none" xmlns="http://www.w3.org/2000/svg">
<mask id="mask0_60_482" style="mask-type:luminance" maskUnits="userSpaceOnUse" x="0" y="0" width="15" height="15">
<path d="M15 0H0V15H15V0Z" fill="white"/>
</mask>
<g mask="url(#mask0_60_482)">
<path d="M2.95452 2.81144C3.49169 2.81144 4.00851 2.81144 4.52533 2.81144C4.59044 2.81144 4.65962 2.80737 4.72473 2.81551C4.98517 2.84805 5.16016 3.0474 5.15202 3.30371C5.14388 3.55188 4.94448 3.74716 4.68403 3.74716C4.32999 3.75123 3.97188 3.74716 3.61784 3.74716C3.06032 3.74716 2.49874 3.74716 1.94123 3.74716C1.59939 3.74716 1.40813 3.56408 1.40813 3.22234C1.40813 2.32324 1.40813 1.42413 1.40813 0.520966C1.40813 0.211771 1.60753 -0.00791902 1.88425 -0.00385067C2.15691 0.000217672 2.34817 0.21584 2.34817 0.529102C2.34817 1.02544 2.34817 1.52584 2.34817 2.0588C2.40514 2.00998 2.4377 1.9815 2.47432 1.95302C4.1021 0.496556 6.01474 -0.15438 8.18376 0.0327644C11.5573 0.321617 14.3286 2.89687 14.8983 6.23699C15.5861 10.2809 12.8758 14.1539 8.85522 14.8781C4.7817 15.6104 0.891308 12.9294 0.134391 8.857C0.0530021 8.42982 0.0367243 7.99044 0.00823813 7.55513C-0.0121091 7.25407 0.191363 7.04252 0.464016 7.03845C0.748878 7.03438 0.940142 7.2378 0.944211 7.55106C1.00118 10.4395 2.78767 12.8602 5.52641 13.7593C8.16341 14.6259 11.1789 13.6332 12.8067 11.3631C13.7019 10.1181 14.117 8.72681 14.06 7.19711C13.9583 4.44691 12.0172 1.95709 9.35169 1.21665C7.00362 0.561649 4.89971 1.06612 3.06846 2.68125C3.03998 2.70973 3.01149 2.73821 2.98301 2.76669C2.9708 2.76669 2.9708 2.77889 2.95452 2.81144Z" fill="black"/>
<path d="M7.96786 9.86579C7.96786 10.0122 7.97193 10.1587 7.96786 10.3051C7.95972 10.5818 7.75625 10.7811 7.4958 10.7771C7.23943 10.773 7.0441 10.5737 7.04003 10.3051C7.03596 10.1587 7.04003 10.0122 7.04003 9.84544C6.97085 9.84544 6.91794 9.84544 6.86504 9.84544C6.61273 9.84544 6.35636 9.84951 6.10405 9.84544C5.82733 9.83731 5.632 9.62982 5.63607 9.36538C5.64014 9.10907 5.83954 8.90972 6.10812 8.90972C6.68598 8.90565 7.26792 8.90972 7.84578 8.90972C7.89461 8.90972 7.94751 8.90972 7.99635 8.90972C8.23644 8.89345 8.42364 8.70631 8.43991 8.46627C8.45619 8.24658 8.29342 8.03909 8.0696 7.99027C8.00448 7.97807 7.93937 7.974 7.87426 7.974C7.57312 7.96993 7.27198 7.97807 6.97491 7.96993C6.25462 7.94552 5.67269 7.37189 5.63607 6.65992C5.59537 5.91948 6.10405 5.28889 6.82841 5.18311C6.89353 5.17497 6.95864 5.16277 7.04003 5.15056C7.04003 5.00004 7.03596 4.85357 7.04003 4.70711C7.04816 4.4264 7.2435 4.22705 7.50394 4.22705C7.76439 4.22705 7.96379 4.4264 7.96786 4.70711C7.97193 4.85357 7.96786 5.00004 7.96786 5.1587C8.28935 5.1587 8.59455 5.15463 8.89976 5.1587C9.1073 5.16277 9.26194 5.26041 9.33926 5.45162C9.40844 5.62656 9.37996 5.79336 9.25787 5.93576C9.15614 6.05374 9.01778 6.09849 8.86314 6.09849C8.25679 6.09849 7.65451 6.09442 7.04816 6.09849C6.67785 6.10256 6.45403 6.46871 6.62494 6.78197C6.72261 6.96098 6.88132 7.03421 7.08072 7.03421C7.39 7.03421 7.69928 7.03014 8.01262 7.03828C8.69222 7.05455 9.27008 7.5631 9.36368 8.2181C9.46135 8.90972 9.06661 9.55659 8.41143 9.76815C8.269 9.8129 8.12657 9.82917 7.96786 9.86579Z" fill="black"/>
</g>
</svg>
